<svg id="Camada_1" data-name="Camada 1" xmlns="http://www.w3.org/2000/svg" viewBox="0 0 1057.27 328.21">
    <defs>
        <style>.cls-1{fill:#f50a31;}.cls-2{fill:#00127a;}</style>
    </defs>
    <path class="cls-1"
          d="M950.94,158.55a5,5,0,0,0-8.21-1.7l-25.87,25.87-13.9-3-3-13.91L925.83,140a5,5,0,0,0-1.69-8.21,47.84,47.84,0,0,0-63.73,57.32l-69,69a23.48,23.48,0,1,0,33.2,33.21l69-69a47.84,47.84,0,0,0,57.32-63.72Z"/>
    <path class="cls-2"
          d="M304.52,94.08A21.82,21.82,0,0,0,288,87q-9,0-15.08,3.86a20.5,20.5,0,0,0-8.56,11.64L220.72,219.88l-31.39-85.23q-3.26-7.74-7.94-11.42c-3.14-2.44-7.55-3.66-13.26-3.66q-15.9,0-22.43,15.08L113.5,221.9l-44-119.45A21,21,0,0,0,61.1,90.81,25.23,25.23,0,0,0,47,87Q36,87,29.3,94.48a25.79,25.79,0,0,0-6.74,17.75,27.19,27.19,0,0,0,1.64,9.38l62.39,168a22,22,0,0,0,8.76,11.63A23.81,23.81,0,0,0,109,305.5l3.27-.41q13.86-.82,20.79-15.5l33-100.31,34.66,100.31q6.92,14.69,20.79,15.5l3.27.41a23.81,23.81,0,0,0,13.65-4.28,22.28,22.28,0,0,0,8.78-11.63l62.38-168a35.91,35.91,0,0,0,1.62-9.38Q311.24,101.2,304.52,94.08Z"/>
    <path class="cls-2"
          d="M466.8,97.76A95.23,95.23,0,0,0,416,83.08a100.1,100.1,0,0,0-51.36,14.06q-24.07,14.07-38.74,40.57t-14.69,61.57q0,31.41,13.87,56.47a99.69,99.69,0,0,0,39.34,39.36q25.49,14.25,59.75,14.27a120,120,0,0,0,38.72-6.52q19.15-6.53,30.59-15.91,11.4-9,11.42-20a19.53,19.53,0,0,0-6.12-14.27,20.06,20.06,0,0,0-14.69-6.12,31.16,31.16,0,0,0-13.85,3.67c-1.36.81-3.88,2.39-7.55,4.69a68.09,68.09,0,0,1-14.88,6.52q-9.39,3.06-26.1,3.05a62.68,62.68,0,0,1-39.55-13.65q-17.52-13.67-22.42-37.71H494.33A25.94,25.94,0,0,0,511.45,207a21,21,0,0,0,7.75-15.9,106.48,106.48,0,0,0-14.27-53.82A110,110,0,0,0,466.8,97.76Zm.2,74.61H360.17q8.56-44.43,55.86-44.45a52.94,52.94,0,0,1,34.26,12.24q15.09,12.22,16.71,29.35Z"/>
    <path class="cls-2"
          d="M725.41,5.44q-10.6,0-17.54,7.07a24,24,0,0,0-6.93,17.56v79.15a98.29,98.29,0,0,0-65.64-25,91.41,91.41,0,0,0-49.95,14.34q-22.64,14.33-35.67,40t-13.06,57.93q0,32.31,13.25,57.76T586,294q22.81,14.34,51,14.34A83.57,83.57,0,0,0,673.41,300q17.36-8.28,27.53-20a25.2,25.2,0,0,0,7.13,17.37q6.75,6.89,17.34,6.87a23.48,23.48,0,0,0,17.53-7.07,24.07,24.07,0,0,0,6.92-17.56V30.07q0-10.89-6.92-17.76T725.41,5.44ZM686.27,244.69Q669.55,263.86,643,263.86t-43-19.17q-16.53-19.19-16.53-48.26T600.23,148Q617,128.6,643,128.59q26.51,0,43.24,19.39T703,196.43Q703,225.52,686.27,244.69Z"/>
    <path class="cls-2"
          d="M1029.81,153.35h-13.76A111,111,0,0,0,1002.76,121l10.84-9.78a4.91,4.91,0,0,0,.35-6.92L986.76,74.17a4.9,4.9,0,0,0-6.91-.35l-12,10.82A111.17,111.17,0,0,0,926.65,68.5V51.92a4.89,4.89,0,0,0-4.9-4.89H881.19a4.89,4.89,0,0,0-4.9,4.89V71.38A111.36,111.36,0,0,0,848.5,83.5L836.32,70a4.89,4.89,0,0,0-6.91-.36L799.3,96.85a4.9,4.9,0,0,0-.35,6.92l13.18,14.59c.17.19.45.15.65.31a111,111,0,0,0-14.55,34.68H784.47a4.89,4.89,0,0,0-4.9,4.89v40.57a4.9,4.9,0,0,0,4.9,4.9h13.76c1.65,7.14,4.58,13.68,7.57,20.18,9-7.5,26.28-22,37.29-31.26a67.16,67.16,0,1,1,46.23,48.8L856.74,278a114,114,0,0,0,19.55,7.69v17.71a4.9,4.9,0,0,0,4.9,4.9h40.56a4.9,4.9,0,0,0,4.9-4.9V288.56a110.89,110.89,0,0,0,33.69-12.05l8.46,9.37a4.9,4.9,0,0,0,6.92.36l30.1-27.19a4.9,4.9,0,0,0,.36-6.92l-8-8.81a111.2,111.2,0,0,0,17.83-39.61h13.76a4.9,4.9,0,0,0,4.9-4.9V158.24A4.89,4.89,0,0,0,1029.81,153.35Z"/>
</svg>